<svg width="163" height="179" viewBox="0 0 163 179" fill="none" xmlns="http://www.w3.org/2000/svg">
<path d="M81.8 72C76.3333 72 71.3 71.1 66.7 69.3C62.1 67.5 58.1 65 54.7 61.8C51.3 58.5333 48.6667 54.7333 46.8 50.4C44.9333 46 44 41.2 44 36C44 30.8 44.9333 26.0333 46.8 21.7C48.6667 17.3 51.3 13.5 54.7 10.3C58.1 7.03333 62.1 4.5 66.7 2.7C71.3 0.9 76.3 0 81.7 0C87.1667 0 92.1667 0.9 96.7 2.7C101.3 4.5 105.3 7.03333 108.7 10.3C112.1 13.5 114.733 17.3 116.6 21.7C118.467 26.0333 119.4 30.8 119.4 36C119.4 41.2 118.467 46 116.6 50.4C114.733 54.8 112.1 58.6 108.7 61.8C105.3 65 101.3 67.5 96.7 69.3C92.1667 71.1 87.2 72 81.8 72Z" fill="#FD7E7E"/>
<path d="M34.8721 153.879L6 143.899V94H34.8721V153.879Z" fill="#FD7E7E"/>
<path d="M128.151 94H157.023V143.899L128.151 153.879V94Z" fill="#FD7E7E"/>
<path d="M63.7441 166.359L81.5116 172.5L99.279 166.359V96.5H63.7441V166.359Z" fill="#FD7E7E"/>
<path d="M34.8721 153.879L6 143.899V94H34.8721V153.879Z" stroke="#FD7E7E" stroke-width="11"/>
<path d="M128.151 94H157.023V143.899L128.151 153.879V94Z" stroke="#FD7E7E" stroke-width="11"/>
<path d="M63.7441 166.359L81.5116 172.5L99.279 166.359V96.5H63.7441V166.359Z" stroke="#FD7E7E" stroke-width="11"/>
</svg>
