<svg width="385" height="164" viewBox="0 0 385 164" fill="none" xmlns="http://www.w3.org/2000/svg">
<path d="M0.5 71L32 0.999999H44.8L76.4 71H62.8L35.7 7.9H40.9L13.9 71H0.5ZM15 54.8L18.5 44.6H56.3L59.8 54.8H15Z" fill="black"/>
<path d="M117.026 72C111.559 72 106.526 71.1333 101.926 69.4C97.3924 67.6 93.4258 65.1 90.0258 61.9C86.6258 58.6333 83.9924 54.8 82.1258 50.4C80.2591 46 79.3258 41.2 79.3258 36C79.3258 30.8 80.2591 26 82.1258 21.6C83.9924 17.2 86.6258 13.4 90.0258 10.2C93.4924 6.93334 97.5258 4.43334 102.126 2.7C106.726 0.9 111.759 0 117.226 0C123.159 0 128.492 0.966666 133.226 2.9C138.026 4.83333 142.059 7.66667 145.326 11.4L137.126 19.4C134.392 16.6667 131.426 14.6667 128.226 13.4C125.092 12.0667 121.626 11.4 117.826 11.4C114.159 11.4 110.759 12 107.626 13.2C104.492 14.4 101.792 16.1 99.5258 18.3C97.2591 20.5 95.4925 23.1 94.2258 26.1C93.0258 29.1 92.4258 32.4 92.4258 36C92.4258 39.5333 93.0258 42.8 94.2258 45.8C95.4925 48.8 97.2591 51.4333 99.5258 53.7C101.792 55.9 104.459 57.6 107.526 58.8C110.592 60 113.992 60.6 117.726 60.6C121.192 60.6 124.526 60.0667 127.726 59C130.992 57.8667 134.092 56 137.026 53.4L144.426 63.1C140.759 66.0333 136.492 68.2667 131.626 69.8C126.826 71.2667 121.959 72 117.026 72ZM132.126 61.4V35.2H144.426V63.1L132.126 61.4Z" fill="black"/>
<path d="M194.372 72C188.905 72 183.872 71.1 179.272 69.3C174.672 67.5 170.672 65 167.272 61.8C163.872 58.5333 161.239 54.7333 159.372 50.4C157.505 46 156.572 41.2 156.572 36C156.572 30.8 157.505 26.0333 159.372 21.7C161.239 17.3 163.872 13.5 167.272 10.3C170.672 7.03333 174.672 4.5 179.272 2.7C183.872 0.9 188.872 0 194.272 0C199.739 0 204.739 0.9 209.272 2.7C213.872 4.5 217.872 7.03333 221.272 10.3C224.672 13.5 227.305 17.3 229.172 21.7C231.039 26.0333 231.972 30.8 231.972 36C231.972 41.2 231.039 46 229.172 50.4C227.305 54.8 224.672 58.6 221.272 61.8C217.872 65 213.872 67.5 209.272 69.3C204.739 71.1 199.772 72 194.372 72ZM194.272 60.6C197.805 60.6 201.072 60 204.072 58.8C207.072 57.6 209.672 55.9 211.872 53.7C214.072 51.4333 215.772 48.8333 216.972 45.9C218.239 42.9 218.872 39.6 218.872 36C218.872 32.4 218.239 29.1333 216.972 26.2C215.772 23.2 214.072 20.6 211.872 18.4C209.672 16.1333 207.072 14.4 204.072 13.2C201.072 12 197.805 11.4 194.272 11.4C190.739 11.4 187.472 12 184.472 13.2C181.539 14.4 178.939 16.1333 176.672 18.4C174.472 20.6 172.739 23.2 171.472 26.2C170.272 29.1333 169.672 32.4 169.672 36C169.672 39.5333 170.272 42.8 171.472 45.8C172.739 48.8 174.472 51.4333 176.672 53.7C178.872 55.9 181.472 57.6 184.472 58.8C187.472 60 190.739 60.6 194.272 60.6Z" fill="#FD7E7E"/>
<path d="M245.752 71V0.999999H274.552C280.752 0.999999 286.052 2 290.452 4C294.918 6 298.352 8.86667 300.752 12.6C303.152 16.3333 304.352 20.7667 304.352 25.9C304.352 31.0333 303.152 35.4667 300.752 39.2C298.352 42.8667 294.918 45.7 290.452 47.7C286.052 49.6333 280.752 50.6 274.552 50.6H252.952L258.752 44.7V71H245.752ZM291.552 71L273.852 45.6H287.752L305.552 71H291.552ZM258.752 46.1L252.952 39.9H273.952C279.685 39.9 283.985 38.6667 286.852 36.2C289.785 33.7333 291.252 30.3 291.252 25.9C291.252 21.4333 289.785 18 286.852 15.6C283.985 13.2 279.685 12 273.952 12H252.952L258.752 5.6V46.1Z" fill="black"/>
<path d="M308.996 71L340.496 0.999999H353.296L384.896 71H371.296L344.196 7.9H349.396L322.396 71H308.996ZM323.496 54.8L326.996 44.6H364.796L368.296 54.8H323.496Z" fill="black"/>
<path d="M175.233 157.859L193 164L210.767 157.859V88H175.233V157.859Z" fill="#FD7E7E"/>
<path d="M146.36 147.879L117.488 137.899V88H146.36V147.879Z" fill="black"/>
<path d="M88.6163 88V127.919L59.7442 117.939V88H88.6163Z" fill="black"/>
<path d="M30.8721 88V107.96L2 97.9798V88H30.8721Z" fill="black"/>
<path d="M239.64 88H268.512V137.899L239.64 147.879V88Z" fill="black"/>
<path d="M297.384 127.919V88H326.256V117.939L297.384 127.919Z" fill="black"/>
<path d="M355.128 107.96V88H384V97.9798L355.128 107.96Z" fill="black"/>
<path d="M144 35V46H128V35H144Z" fill="black"/>
</svg>
