<svg width="152" height="173" viewBox="0 0 152 173" fill="none" xmlns="http://www.w3.org/2000/svg">
<path d="M75.8 72C70.3333 72 65.3 71.1 60.7 69.3C56.1 67.5 52.1 65 48.7 61.8C45.3 58.5333 42.6667 54.7333 40.8 50.4C38.9333 46 38 41.2 38 36C38 30.8 38.9333 26.0333 40.8 21.7C42.6667 17.3 45.3 13.5 48.7 10.3C52.1 7.03333 56.1 4.5 60.7 2.7C65.3 0.9 70.3 0 75.7 0C81.1667 0 86.1667 0.9 90.7 2.7C95.3 4.5 99.3 7.03333 102.7 10.3C106.1 13.5 108.733 17.3 110.6 21.7C112.467 26.0333 113.4 30.8 113.4 36C113.4 41.2 112.467 46 110.6 50.4C108.733 54.8 106.1 58.6 102.7 61.8C99.3 65 95.3 67.5 90.7 69.3C86.1667 71.1 81.2 72 75.8 72Z" fill="#FD7E7E"/>
<path d="M28.8721 153.879L0 143.899V94H28.8721V153.879Z" fill="#FD7E7E"/>
<path d="M122.151 94H151.023V143.899L122.151 153.879V94Z" fill="#FD7E7E"/>
<path d="M57.7441 166.359L75.5116 172.5L93.279 166.359V96.5H57.7441V166.359Z" fill="#FD7E7E"/>
</svg>
