<svg width="163" height="176" viewBox="0 0 163 176" fill="none" xmlns="http://www.w3.org/2000/svg">
<path d="M81.8 72C76.3333 72 71.3 71.1 66.7 69.3C62.1 67.5 58.1 65 54.7 61.8C51.3 58.5333 48.6667 54.7333 46.8 50.4C44.9333 46 44 41.2 44 36C44 30.8 44.9333 26.0333 46.8 21.7C48.6667 17.3 51.3 13.5 54.7 10.3C58.1 7.03333 62.1 4.5 66.7 2.7C71.3 0.9 76.3 0 81.7 0C87.1667 0 92.1667 0.9 96.7 2.7C101.3 4.5 105.3 7.03333 108.7 10.3C112.1 13.5 114.733 17.3 116.6 21.7C118.467 26.0333 119.4 30.8 119.4 36C119.4 41.2 118.467 46 116.6 50.4C114.733 54.8 112.1 58.6 108.7 61.8C105.3 65 101.3 67.5 96.7 69.3C92.1667 71.1 87.2 72 81.8 72ZM81.7 60.6C85.2333 60.6 88.5 60 91.5 58.8C94.5 57.6 97.1 55.9 99.3 53.7C101.5 51.4333 103.2 48.8333 104.4 45.9C105.667 42.9 106.3 39.6 106.3 36C106.3 32.4 105.667 29.1333 104.4 26.2C103.2 23.2 101.5 20.6 99.3 18.4C97.1 16.1333 94.5 14.4 91.5 13.2C88.5 12 85.2333 11.4 81.7 11.4C78.1667 11.4 74.9 12 71.9 13.2C68.9667 14.4 66.3667 16.1333 64.1 18.4C61.9 20.6 60.1667 23.2 58.9 26.2C57.7 29.1333 57.1 32.4 57.1 36C57.1 39.5333 57.7 42.8 58.9 45.8C60.1667 48.8 61.9 51.4333 64.1 53.7C66.3 55.9 68.9 57.6 71.9 58.8C74.9 60 78.1667 60.6 81.7 60.6Z" fill="#EBDFEB"/>
<path d="M34.8721 153.879L6 143.899V94H34.8721V153.879Z" stroke="#EBDFEB" stroke-width="11"/>
<path d="M128.151 94H157.023V143.899L128.151 153.879V94Z" stroke="#EBDFEB" stroke-width="11"/>
<path d="M63.7441 164L81.5116 170.141L99.279 164V94.1414H63.7441V164Z" stroke="#EBDFEB" stroke-width="11"/>
</svg>
