<svg width="73" height="386" viewBox="0 0 73 386" fill="none" xmlns="http://www.w3.org/2000/svg">
<path d="M1.19922 0.801755L71.1992 32.3018L71.1992 45.1018L1.19922 76.7018L1.19922 63.1018L64.2992 36.0018L64.2992 41.2018L1.19922 14.2018L1.19922 0.801755ZM17.3992 15.3018L27.5992 18.8018L27.5992 56.6018L17.3992 60.1018L17.3992 15.3018Z" fill="white"/>
<path d="M0.199206 117.328C0.199206 111.861 1.06588 106.828 2.79921 102.228C4.59921 97.6942 7.09921 93.7275 10.2992 90.3275C13.5659 86.9275 17.3992 84.2942 21.7992 82.4275C26.1992 80.5609 30.9992 79.6275 36.1992 79.6275C41.3992 79.6275 46.1992 80.5609 50.5992 82.4275C54.9992 84.2942 58.7992 86.9275 61.9992 90.3275C65.2659 93.7942 67.7659 97.8275 69.4992 102.428C71.2992 107.028 72.1992 112.061 72.1992 117.528C72.1992 123.461 71.2325 128.794 69.2992 133.528C67.3659 138.328 64.5325 142.361 60.7992 145.628L52.7992 137.428C55.5325 134.694 57.5325 131.728 58.7992 128.528C60.1325 125.394 60.7992 121.928 60.7992 118.128C60.7992 114.461 60.1992 111.061 58.9992 107.928C57.7992 104.794 56.0992 102.094 53.8992 99.8275C51.6992 97.5609 49.0992 95.7942 46.0992 94.5275C43.0992 93.3275 39.7992 92.7275 36.1992 92.7275C32.6659 92.7275 29.3992 93.3275 26.3992 94.5275C23.3992 95.7942 20.7659 97.5609 18.4992 99.8275C16.2992 102.094 14.5992 104.761 13.3992 107.828C12.1992 110.894 11.5992 114.294 11.5992 118.028C11.5992 121.494 12.1325 124.828 13.1992 128.028C14.3325 131.294 16.1992 134.394 18.7992 137.328L9.09921 144.728C6.16588 141.061 3.93254 136.794 2.39921 131.928C0.932543 127.128 0.199206 122.261 0.199206 117.328ZM10.7992 132.428L36.9992 132.428L36.9992 144.728L9.09921 144.728L10.7992 132.428Z" fill="white"/>
<path d="M1.19921 246.053L71.1992 246.053L71.1992 274.853C71.1992 281.053 70.1992 286.353 68.1992 290.753C66.1992 295.22 63.3325 298.653 59.5992 301.053C55.8659 303.453 51.4325 304.653 46.2992 304.653C41.1659 304.653 36.7325 303.453 32.9992 301.053C29.3325 298.653 26.4992 295.22 24.4992 290.753C22.5659 286.353 21.5992 281.053 21.5992 274.853L21.5992 253.253L27.4992 259.053L1.19921 259.053L1.19921 246.053ZM1.19921 291.853L26.5992 274.153L26.5992 288.053L1.19921 305.853L1.19921 291.853ZM26.0992 259.053L32.2992 253.253L32.2992 274.253C32.2992 279.987 33.5325 284.287 35.9992 287.153C38.4659 290.087 41.8992 291.553 46.2992 291.553C50.7659 291.553 54.1992 290.087 56.5992 287.153C58.9992 284.287 60.1992 279.987 60.1992 274.253L60.1992 253.253L66.5992 259.053L26.0992 259.053Z" fill="white"/>
<path d="M1.19921 309.298L71.1992 340.798L71.1992 353.598L1.1992 385.198L1.1992 371.598L64.2992 344.498L64.2992 349.698L1.1992 322.698L1.19921 309.298ZM17.3992 323.798L27.5992 327.298L27.5992 365.098L17.3992 368.598L17.3992 323.798Z" fill="white"/>
<path d="M37.1992 144.302L26.1992 144.302L26.1992 128.302L37.1992 128.302L37.1992 144.302Z" fill="white"/>
<path d="M0.199209 194.602C0.19921 189.135 1.09921 184.102 2.89921 179.502C4.69922 174.902 7.19921 170.902 10.3992 167.502C13.6659 164.102 17.4659 161.468 21.7992 159.602C26.1992 157.735 30.9992 156.802 36.1992 156.802C41.3992 156.802 46.1659 157.735 50.4992 159.602C54.8992 161.468 58.6992 164.102 61.8992 167.502C65.1659 170.902 67.6992 174.902 69.4992 179.502C71.2992 184.102 72.1992 189.102 72.1992 194.502C72.1992 199.968 71.2992 204.968 69.4992 209.502C67.6992 214.102 65.1659 218.102 61.8992 221.502C58.6992 224.902 54.8992 227.535 50.4992 229.402C46.1659 231.268 41.3992 232.202 36.1992 232.202C30.9992 232.202 26.1992 231.268 21.7992 229.402C17.3992 227.535 13.5992 224.902 10.3992 221.502C7.19921 218.102 4.69921 214.102 2.89921 209.502C1.09921 204.968 0.199209 200.002 0.199209 194.602ZM11.5992 194.502C11.5992 198.035 12.1992 201.302 13.3992 204.302C14.5992 207.302 16.2992 209.902 18.4992 212.102C20.7659 214.302 23.3659 216.002 26.2992 217.202C29.2992 218.468 32.5992 219.102 36.1992 219.102C39.7992 219.102 43.0659 218.468 45.9992 217.202C48.9992 216.002 51.5992 214.302 53.7992 212.102C56.0659 209.902 57.7992 207.302 58.9992 204.302C60.1992 201.302 60.7992 198.035 60.7992 194.502C60.7992 190.968 60.1992 187.702 58.9992 184.702C57.7992 181.768 56.0659 179.168 53.7992 176.902C51.5992 174.702 48.9992 172.968 45.9992 171.702C43.0659 170.502 39.7992 169.902 36.1992 169.902C32.6659 169.902 29.3992 170.502 26.3992 171.702C23.3992 172.968 20.7659 174.702 18.4992 176.902C16.2992 179.102 14.5992 181.702 13.3992 184.702C12.1992 187.702 11.5992 190.968 11.5992 194.502Z" fill="white"/>
</svg>
