<svg width="385" height="176" viewBox="0 0 385 176" fill="none" xmlns="http://www.w3.org/2000/svg">
<path d="M0 71L31.5 0.999999H44.3L75.9 71H62.3L35.2 7.9H40.4L13.4 71H0ZM14.5 54.8L18 44.6H55.8L59.3 54.8H14.5Z" fill="black"/>
<path d="M116.526 72C111.059 72 106.026 71.1333 101.426 69.4C96.8924 67.6 92.9258 65.1 89.5258 61.9C86.1258 58.6333 83.4924 54.8 81.6258 50.4C79.7591 46 78.8258 41.2 78.8258 36C78.8258 30.8 79.7591 26 81.6258 21.6C83.4924 17.2 86.1258 13.4 89.5258 10.2C92.9924 6.93334 97.0258 4.43334 101.626 2.7C106.226 0.9 111.259 0 116.726 0C122.659 0 127.992 0.966666 132.726 2.9C137.526 4.83333 141.559 7.66667 144.826 11.4L136.626 19.4C133.892 16.6667 130.926 14.6667 127.726 13.4C124.592 12.0667 121.126 11.4 117.326 11.4C113.659 11.4 110.259 12 107.126 13.2C103.992 14.4 101.292 16.1 99.0258 18.3C96.7591 20.5 94.9925 23.1 93.7258 26.1C92.5258 29.1 91.9258 32.4 91.9258 36C91.9258 39.5333 92.5258 42.8 93.7258 45.8C94.9925 48.8 96.7591 51.4333 99.0258 53.7C101.292 55.9 103.959 57.6 107.026 58.8C110.092 60 113.492 60.6 117.226 60.6C120.692 60.6 124.026 60.0667 127.226 59C130.492 57.8667 133.592 56 136.526 53.4L143.926 63.1C140.259 66.0333 135.992 68.2667 131.126 69.8C126.326 71.2667 121.459 72 116.526 72ZM131.626 61.4V35.2H143.926V63.1L131.626 61.4Z" fill="black"/>
<path d="M245.252 71V0.999999H274.052C280.252 0.999999 285.552 2 289.952 4C294.418 6 297.852 8.86667 300.252 12.6C302.652 16.3333 303.852 20.7667 303.852 25.9C303.852 31.0333 302.652 35.4667 300.252 39.2C297.852 42.8667 294.418 45.7 289.952 47.7C285.552 49.6333 280.252 50.6 274.052 50.6H252.452L258.252 44.7V71H245.252ZM291.052 71L273.352 45.6H287.252L305.052 71H291.052ZM258.252 46.1L252.452 39.9H273.452C279.185 39.9 283.485 38.6667 286.352 36.2C289.285 33.7333 290.752 30.3 290.752 25.9C290.752 21.4333 289.285 18 286.352 15.6C283.485 13.2 279.185 12 273.452 12H252.452L258.252 5.6V46.1Z" fill="black"/>
<path d="M308.496 71L339.996 0.999999H352.796L384.396 71H370.796L343.696 7.9H348.896L321.896 71H308.496ZM322.996 54.8L326.496 44.6H364.296L367.796 54.8H322.996Z" fill="black"/>
<path d="M143.5 35V46H127.5V35H143.5Z" fill="black"/>
<path d="M193.8 72C188.333 72 183.3 71.1 178.7 69.3C174.1 67.5 170.1 65 166.7 61.8C163.3 58.5333 160.667 54.7333 158.8 50.4C156.933 46 156 41.2 156 36C156 30.8 156.933 26.0333 158.8 21.7C160.667 17.3 163.3 13.5 166.7 10.3C170.1 7.03333 174.1 4.5 178.7 2.7C183.3 0.9 188.3 0 193.7 0C199.167 0 204.167 0.9 208.7 2.7C213.3 4.5 217.3 7.03333 220.7 10.3C224.1 13.5 226.733 17.3 228.6 21.7C230.467 26.0333 231.4 30.8 231.4 36C231.4 41.2 230.467 46 228.6 50.4C226.733 54.8 224.1 58.6 220.7 61.8C217.3 65 213.3 67.5 208.7 69.3C204.167 71.1 199.2 72 193.8 72ZM193.7 60.6C197.233 60.6 200.5 60 203.5 58.8C206.5 57.6 209.1 55.9 211.3 53.7C213.5 51.4333 215.2 48.8333 216.4 45.9C217.667 42.9 218.3 39.6 218.3 36C218.3 32.4 217.667 29.1333 216.4 26.2C215.2 23.2 213.5 20.6 211.3 18.4C209.1 16.1333 206.5 14.4 203.5 13.2C200.5 12 197.233 11.4 193.7 11.4C190.167 11.4 186.9 12 183.9 13.2C180.967 14.4 178.367 16.1333 176.1 18.4C173.9 20.6 172.167 23.2 170.9 26.2C169.7 29.1333 169.1 32.4 169.1 36C169.1 39.5333 169.7 42.8 170.9 45.8C172.167 48.8 173.9 51.4333 176.1 53.7C178.3 55.9 180.9 57.6 183.9 58.8C186.9 60 190.167 60.6 193.7 60.6Z" fill="#FD7E7E"/>
<path d="M146.872 153.879L118 143.899V94H146.872V153.879Z" stroke="#FD7E7E" stroke-width="11"/>
<path d="M240.151 94H269.023V143.899L240.151 153.879V94Z" stroke="#FD7E7E" stroke-width="11"/>
<path d="M175.744 163.859L193.512 170L211.279 163.859V94H175.744V163.859Z" stroke="#FD7E7E" stroke-width="11"/>
</svg>
