<svg width="220" height="220" viewBox="0 0 220 220" fill="none" xmlns="http://www.w3.org/2000/svg">
<path fill-rule="evenodd" clip-rule="evenodd" d="M0 0H220V220H0V0ZM109.8 98C104.333 98 99.3 97.1 94.7 95.3C90.1 93.5 86.1 91 82.7 87.8C79.3 84.5333 76.6667 80.7333 74.8 76.4C72.9333 72 72 67.2 72 62C72 56.8 72.9333 52.0333 74.8 47.7C76.6667 43.3 79.3 39.5 82.7 36.3C86.1 33.0333 90.1 30.5 94.7 28.7C99.3 26.9 104.3 26 109.7 26C115.167 26 120.167 26.9 124.7 28.7C129.3 30.5 133.3 33.0333 136.7 36.3C140.1 39.5 142.733 43.3 144.6 47.7C146.467 52.0333 147.4 56.8 147.4 62C147.4 67.2 146.467 72 144.6 76.4C142.733 80.8 140.1 84.6 136.7 87.8C133.3 91 129.3 93.5 124.7 95.3C120.167 97.1 115.2 98 109.8 98ZM109.7 86.6C113.233 86.6 116.5 86 119.5 84.8C122.5 83.6 125.1 81.9 127.3 79.7C129.5 77.4333 131.2 74.8333 132.4 71.9C133.667 68.9 134.3 65.6 134.3 62C134.3 58.4 133.667 55.1333 132.4 52.2C131.2 49.2 129.5 46.6 127.3 44.4C125.1 42.1333 122.5 40.4 119.5 39.2C116.5 38 113.233 37.4 109.7 37.4C106.167 37.4 102.9 38 99.9 39.2C96.9667 40.4 94.3667 42.1333 92.1 44.4C89.9 46.6 88.1667 49.2 86.9 52.2C85.7 55.1333 85.1 58.4 85.1 62C85.1 65.5333 85.7 68.8 86.9 71.8C88.1667 74.8 89.9 77.4333 92.1 79.7C94.3 81.9 96.9 83.6 99.9 84.8C102.9 86 106.167 86.6 109.7 86.6ZM34 114.5H28.5V120V169.899V173.817L32.2032 175.097L61.0753 185.077L68.3721 187.599V179.879V120V114.5H62.8721H34ZM39.5 165.981V125.5H57.3721V172.158L39.5 165.981ZM156.151 114.5H150.651V120V179.879V187.599L157.948 185.077L186.82 175.097L190.523 173.817V169.899V120V114.5H185.023H156.151ZM161.651 172.158V125.5H179.523V165.981L161.651 172.158ZM91.7441 114.641H86.2441V120.141V190V193.918L89.9473 195.198L107.715 201.34L109.512 201.961L111.308 201.34L129.076 195.198L132.779 193.918V190V120.141V114.641H127.279H91.7441ZM97.2441 186.082V125.641H121.779V186.082L109.512 190.322L97.2441 186.082Z" fill="white"/>
</svg>
